PathFileType	4	(X/Y/Z)	C:/Users/beibeiliu/ov580/test_trc\sequence.37_training_dense_right.trc
DataRate	CameraRate	NumFrames	NumMarkers	Units	OrigDataRate	OrigDataStartFrame	OrigNumFrames
120	120	23	19	mm	120	51	152
Frame#	Time	ThumbCMC			ThumbMCP			ThumbIP			ThumbTip			IndexMCP			IndexPIP			IndexTip			MiddleMCP			MiddlePIP			MiddleTip			RingMCP			RingPIP			RingTip			PinkyMCP			PinkyPIP			PinkyTip			BackHand1			BackHand2			BackHand3	
		X0	Y0	Z0	X1	Y1	Z1	X2	Y2	Z2	X3	Y3	Z3	X4	Y4	Z4	X5	Y5	Z5	X6	Y6	Z6	X7	Y7	Z7	X8	Y8	Z8	X9	Y9	Z9	X10	Y10	Z10	X11	Y11	Z11	X12	Y12	Z12	X13	Y13	Z13	X14	Y14	Z14	X15	Y15	Z15	X16	Y16	Z16	X17	Y17	Z17	X18	Y18	Z18	
50	0.416667	80.8529	66.2015	53.7728	62.0425	60.7312	39.806	48.6974	61.9158	26.2733	32.3089	64.4812	15.5115	80.7477	65.2266	-12.7383	80.825	37.3193	-19.2155	87.7409	17.5611	-0.878704	100.938	79.7706	-22.745	97.4855	74.1169	-42.3144	100.306	65.4242	-67.9531	129.015	82.463	-12.3891	128.509	86.0906	-31.7005	132.458	91.1778	-55.187	145.576	75.1571	2.27504	151.638	83.4051	-10.9449	164.209	92.4397	-17.2941	125.689	83.0705	28.5522	129.576	83.3915	54.2265	105.606	85.2204	47.1191	
51	0.425	81.0702	55.0027	57.0734	64.4358	50.1811	37.0725	50.7476	47.5026	25.0306	33.2188	47.4468	15.0177	81.0061	59.469	-12.1491	83.883	34.6268	-23.8072	90.5538	8.24937	-10.3558	98.5128	74.9361	-18.8639	94.3333	71.1342	-41.7975	90.6967	67.5497	-69.774	124.948	80.6492	-12.1558	120.033	87.8727	-35.1155	124.685	95.5347	-53.2196	141.954	77.6481	-0.439332	149.41	83.1887	-9.44444	154.477	101.634	-18.2284	122.416	80.6177	27.1734	130.207	80.7062	53.3869	99.3159	80.3557	45.7806	
52	0.433333	81.378	47.4801	54.281	64.7976	36.1407	37.7339	52.7367	33.1086	20.9162	36.653	28.0868	14.1908	79.2399	49.6352	-16.4302	81.6163	25.4301	-28.5903	99.4193	2.76632	-20.1943	95.38	71.1201	-23.4533	89.1399	66.942	-42.9365	90.5829	67.5385	-69.7252	116.168	78.9851	-16.1124	115.157	84.7003	-34.3103	115.729	95.3697	-52.9325	136.58	76.8095	-1.12511	141.003	86.3596	-13.3912	144.19	101.304	-19.8864	120.894	78.3924	26.7616	122.963	76.544	54.9723	98.3129	72.9633	43.2765	
53	0.441667	82.9186	41.3179	52.3484	67.5284	25.9296	36.2123	57.9667	19.2295	20.2682	42.3211	11.9108	4.92086	76.9452	47.4557	-15.0533	83.5171	28.1523	-31.8306	100.12	5.70603	-28.682	89.0704	67.5827	-22.0178	86.6848	66.8359	-48.2184	86.3355	67.5757	-69.7113	113.2	79.7747	-18.5534	110.771	84.4752	-35.0669	103.656	92.9157	-55.399	134.746	78.6535	-2.2265	139.273	87.0435	-14.2135	135.6	101.524	-23.176	116.499	78.409	27.6862	118.98	78.0107	51.7987	91.2392	70.4859	42.2738	
54	0.45	87.7903	39.435	48.8885	77.0572	22.2354	32.2245	64.9736	12.8534	12.5281	56.948	3.12389	1.21753	78.1277	44.1568	-20.6619	86.7627	21.7113	-34.5018	103.607	4.39343	-29.7015	87.5073	66.7916	-26.0569	83.7076	64.4023	-50.4979	80.0868	63.1865	-69.9526	107.232	78.6109	-20.8652	107.832	85.0488	-37.8824	101.543	90.5467	-55.4176	131.088	83.263	-8.97728	133.273	90.7159	-22.156	133.38	107.321	-31.7154	111.431	77.6506	22.7642	118.519	79.7417	49.6177	89.2269	69.7168	37.9268	
55	0.458333	89.431	38.9336	46.1745	79.293	21.0064	26.5335	71.3746	9.16584	12.1346	64.1812	-0.0569786	-7.14335	76.0955	42.1288	-19.1859	88.4114	23.7556	-34.595	106.022	6.19469	-29.2157	85.9628	66.2658	-26.0536	81.6051	62.7374	-48.7303	79.0899	61.6165	-75.0987	107.416	79.9182	-19.3942	97.7327	82.7774	-41.8992	97.6441	91.5383	-58.8358	127.107	83.0164	-9.69484	130.629	91.9715	-25.3253	124.355	103.073	-35.4159	109.977	81.1015	21.2643	116.705	80.4491	48.5585	87.1191	67.1321	38.1359	
56	0.466667	88.1363	36.9822	46.1444	80.4659	17.0412	26.4594	72.9971	8.77199	8.27367	66.4728	-2.06737	-7.62523	75.3672	41.8974	-19.7961	84.2004	23.8323	-33.8712	108.1	5.82543	-28.9445	80.8832	64.7182	-24.659	78.9837	61.575	-46.5858	74.8443	56.981	-72.1056	97.4775	78.1172	-18.4281	94.0554	85.136	-39.9908	89.6755	89.9754	-57.1635	117.503	85.6351	-10.5857	121.033	94.7566	-24.001	117.999	107.212	-36.0319	106.459	81.246	23.9002	110.125	82.1069	48.4801	86.2743	66.95	38.0241	
57	0.475	86.2289	31.782	48.6523	77.5035	12.5524	26.1179	70.1569	1.80044	6.49379	68.2499	-4.13812	-5.84098	68.3672	35.5893	-15.8444	82.3766	21.0935	-35.6658	107.769	7.0392	-32.2466	75.5028	59.8094	-24.4329	71.4301	52.8021	-49.1319	73.8235	47.709	-71.9365	90.2676	77.18	-17.8431	83.1662	79.488	-37.6245	73.998	81.1629	-57.0898	108.21	89.6344	-9.99666	103.798	92.6503	-22.6988	97.2252	108.754	-33.9715	94.073	77.223	26.1003	100.74	80.6909	46.8606	79.9462	62.5712	39.7423	
58	0.483333	81.9023	27.3668	47.7024	78.2062	5.9735	31.37	70.8221	-6.15539	14.0774	67.9536	-12.9197	-5.27333	66.4772	28.8161	-15.0467	77.576	11.0055	-35.1591	100.408	-0.425028	-38.6517	71.2602	50.6632	-22.4969	73.8314	42.6863	-51.4741	80.3691	27.3322	-73.3136	80.2915	67.5757	-17.8911	78.5778	72.0753	-41.4897	72.1155	70.9325	-58.6241	100.131	84.5009	-8.02957	96.3982	90.4846	-21.8698	88.5627	103.227	-29.9647	90.0922	73.7261	26.2118	94.3231	77.1803	51.9688	73.9891	56.0505	42.3612	
59	0.491667	80.714	21.4189	48.0322	75.9764	-3.11557	32.5689	72.9056	-10.4002	10.4333	70.1069	-22.7669	-2.25927	63.3105	17.496	-14.9024	72.8935	6.84719	-36.1417	92.3008	-5.12417	-49.8667	73.0344	38.5403	-27.8695	80.6557	27.0792	-51.5652	97.1743	12.0825	-65.2725	82.1901	61.2283	-21.6459	80.5116	61.3394	-44.1513	79.7865	59.0119	-63.7456	98.9818	76.0354	-7.12689	96.4823	82.3971	-21.4188	87.4406	90.5878	-32.5575	84.6164	64.8575	20.359	88.9724	70.984	49.7144	70.7346	50.2331	40.9351	
60	0.5	78.1517	11.2838	48.7233	77.8513	-6.66126	28.6798	73.1005	-21.3581	11.4592	70.4474	-35.3387	-3.71082	62.409	13.4776	-21.1731	67.3567	-0.774746	-42.2439	76.9109	-12.9128	-60.3673	74.5983	29.1588	-26.9997	85.8273	13.3044	-49.4336	116.199	-3.51567	-54.366	85.1644	52.474	-27.9195	86.3516	49.5194	-47.4419	87.7181	45.6355	-69.5299	101.504	68.0289	-9.70218	94.4452	71.7297	-27.7557	91.5159	84.3789	-33.8858	84.8345	59.7959	18.8955	87.2578	64.2587	45.357	68.0955	42.375	34.3204	
61	0.508333	76.7414	5.6269	41.4778	76.7624	-17.8504	28.6876	73.2225	-31.0569	8.39839	73.2911	-39.0115	-7.13769	61.8427	8.96171	-19.4521	64.2186	1.28148	-45.6245	64.6228	-10.6753	-62.3574	82.4941	24.4295	-30.2345	95.2789	2.74427	-50.7616	119.075	-14.665	-44.3359	88.3277	41.6518	-28.8411	90.5069	39.5414	-48.6515	95.4435	35.0894	-70.463	101.747	59.0721	-15.8118	102.698	64.1783	-27.1892	92.6278	77.6457	-41.4608	88.3128	51.9315	14.7054	89.1131	57.0088	41.2477	68.249	33.6258	32.5124	
62	0.516667	75.0807	2.39106	39.6693	76.1156	-18.4656	23.0808	70.8126	-32.5644	1.80729	68.7145	-43.9811	-9.81528	64.4772	10.981	-23.6269	63.5243	4.66082	-44.6936	57.2928	-5.12321	-66.83	85.7883	19.756	-38.1657	99.4914	-0.22269	-51.287	124.967	-18.3285	-38.6698	95.9439	40.7325	-30.0032	96.5175	32.5584	-55.6625	105.418	24.923	-76.6416	110.274	56.6054	-14.9934	107.781	61.04	-32.9112	102.421	71.1202	-47.8987	90.577	48.5112	15.8104	92.5725	55.2026	41.4089	72.0651	32.3796	27.5342	
63	0.525	72.8436	3.19604	35.0415	71.33	-15.9126	17.7797	64.6482	-28.9706	0.176598	60.5988	-41.6398	-16.2299	65.789	15.8284	-27.7148	57.9089	7.19329	-49.2713	58.09	5.98664	-71.8562	89.6753	21.8367	-37.2044	101.738	2.47914	-52.3345	125.691	-20.7702	-36.8703	102.339	40.1142	-30.9949	107.834	31.9474	-54.7901	116.018	18.5489	-71.2686	117.487	53.5022	-16.4852	116.904	54.9971	-32.7983	118.217	66.6114	-49.3763	93.4318	50.0576	11.1759	95.5646	52.3875	40.9335	72.4593	32.4573	25.5134	
64	0.533333	72.5639	10.551	37.8201	62.685	-7.80695	13.5581	56.3778	-18.0944	-1.05805	50.1641	-25.9201	-20.5462	65.0122	22.3441	-27.9503	61.1237	16.7427	-54.401	61.5259	15.0262	-75.3793	90.758	22.4719	-38.4453	105.926	1.70739	-51.9931	116.681	-23.9373	-36.9661	109.206	38.2691	-32.5387	118.019	25.296	-57.872	121.41	8.4234	-66.9461	125.832	48.1766	-18.7352	131.756	49.9941	-36.6007	138.652	55.175	-52.288	102.622	51.1111	10.0194	102.047	53.9992	39.088	78.366	39.6596	25.4754	
65	0.541667	69.948	20.8088	34.2209	61.4207	9.2732	12.3443	49.1509	4.39386	-5.0369	41.4421	-1.12756	-21.0398	72.5336	32.4511	-30.8261	73.2972	26.2263	-57.267	70.995	19.089	-76.1319	100.971	26.1175	-42.0402	105.519	1.94592	-51.8152	107.972	-24.1807	-36.211	116.147	34.5467	-35.1105	120.258	19.1584	-54.2523	121.567	-4.51414	-62.9945	136.517	40.6235	-20.1979	146.182	36.9452	-38.2723	149.9	33.9035	-53.9103	112.315	50.937	13.0653	109.827	51.8838	40.3494	86.3265	49.2658	21.4268	
66	0.55	71.0425	32.8798	33.4861	60.7044	27.2069	12.3638	48.0144	30.6558	-9.72356	41.1885	30.0245	-24.3675	80.7599	39.4586	-35.9799	76.1224	30.1385	-56.2259	77.1914	8.6164	-76.2992	104.067	32.4665	-38.3825	104.805	5.59112	-52.2643	103.381	-22.298	-33.2605	125.138	36.0938	-36.0731	125.596	16.9261	-54.8995	119.845	-4.34079	-58.8733	143.033	39.0073	-16.5521	149.501	34.8465	-33.0928	156.867	22.109	-53.3521	122.321	52.8908	10.671	119.117	52.4615	38.439	93.5808	53.7145	24.4479	
67	0.558333	70.8994	41.6075	34.8154	61.7571	40.9829	11.9618	55.2575	47.447	-9.99711	43.1559	49.983	-22.3087	85.3532	41.7987	-35.4828	80.8145	22.6765	-53.886	83.8216	-4.80622	-56.5967	104.005	34.3479	-40.4802	105.625	11.1576	-52.501	100.612	-17.0874	-40.1815	128.234	38.9456	-28.6267	126.17	22.1117	-50.5642	117.932	-2.80857	-53.5211	146.589	37.5794	-10.9488	151.598	33.3851	-35.7558	154.525	20.1909	-50.3213	123.242	52.6423	16.2724	123.289	54.4339	43.5705	94.5374	59.3461	22.9407	
68	0.566667	71.7378	41.7788	34.5239	63.7235	42.2787	13.5106	51.0661	50.5861	-8.03266	43.8544	54.9518	-22.202	89.7381	38.2822	-32.353	89.4986	13.9319	-46.5387	83.2174	-10.8934	-31.2657	111.547	35.0881	-40.3857	109.787	12.9245	-52.8882	102.911	-17.0232	-45.208	132.071	38.6131	-28.0264	128.285	23.265	-49.3294	118.04	-3.51327	-54.1655	146.29	37.5264	-9.64724	151.893	34.9897	-27.8356	153.329	19.6449	-50.116	122.025	51.9773	18.0286	121.95	53.4946	41.4706	99.9199	58.4003	23.6806	
69	0.575	75.3761	41.0068	30.002	63.4604	39.9969	11.1907	52.8601	47.3202	-12.227	44.3227	47.9679	-23.5528	88.0025	29.9564	-35.4903	88.4045	3.60848	-38.114	84.7976	-10.917	-13.2655	110.736	35.6015	-38.9448	109.926	12.9471	-55.0262	110.113	-18.6041	-48.8021	131.644	39.345	-26.1471	130.831	25.5527	-48.4773	129.408	-1.60913	-56.9643	145.151	39.3134	-11.2416	157.187	35.3048	-25.0873	160.103	24.4409	-44.8642	124.524	52.26	15.382	115.771	54.6265	43.6714	94.1664	56.594	25.9807	
70	0.583333	73.6792	36.7885	31.326	62.0049	33.2372	7.90636	47.8566	36.3173	-11.6665	39.8758	36.7617	-26.4072	92.5042	24.3393	-34.6545	90.3371	-1.72521	-31.7568	85.053	-6.47616	-0.187906	114.596	34.5911	-37.6239	111.226	14.2968	-55.0579	114.879	-16.5605	-53.721	129.579	39.2869	-26.8464	133.682	28.035	-49.0074	131.945	5.9471	-62.8492	145.789	41.0568	-11.1083	157.725	37.0464	-28.2951	161.336	32.546	-44.3907	123.191	51.0427	14.2025	116.429	54.0165	39.1187	94.6529	57.8499	22.7631	
71	0.591667	71.2574	34.8752	28.8135	56.1472	25.0884	10.8847	49.7066	21.3554	-12.7537	37.0526	17.0171	-29.2765	88.878	25.3335	-33.9393	94.2373	-2.57227	-28.6877	87.5098	-6.0175	-2.2208	108.717	33.7433	-41.1033	111.563	15.2618	-56.4649	113.025	-18.1804	-57.856	128.946	41.0361	-29.0008	137.175	30.0205	-47.8705	136.269	9.61267	-67.0481	144.74	41.3943	-8.36816	153.194	41.8988	-25.7769	162.477	37.5322	-41.5362	120.14	55.1669	16.6875	112.546	55.8022	43.623	90.8119	54.6421	25.5422	
72	0.6	69.4901	31.971	32.4005	57.0069	15.9424	9.27358	50.2815	7.43952	-10.4043	43.3876	-2.62265	-26.8076	87.1255	29.5149	-32.7013	92.1193	-1.75033	-32.4331	90.6053	-4.17756	-3.62717	106.698	37.0175	-39.5287	112.782	17.4212	-58.1412	112.917	-9.99214	-62.1059	124.513	44.2634	-26.6233	129.945	33.5908	-51.4887	137.179	16.3713	-66.9051	139.945	43.6599	-8.4421	152.564	43.0818	-28.7016	165.887	42.4947	-43.3004	116.257	55.7728	16.4407	112.886	57.5908	38.6775	86.1711	55.0165	20.9418	
